# xmcd
#
# Track frame offsets:
#	150
#	38850
#	81306
#	117150
#	155552
#	191327
#	227107
#
# Disc length: 3253 seconds
#
# Revision: 2
# Processed by: cddbd v1.5.2PL0 Copyright (c) Steve Scherf et al.
# Submitted via: audiograbber 1.83.01
#
DISCID=520cb307
DTITLE=Bill Bruford's Earthworks - Video Anthology 1-The Soundtrack-Disc 1-2019
DTITLE=Summerfold Remaster
DYEAR=2019
DGENRE=Jazz
TTITLE0=Triplicity (Live at The Bottom Line-New York-USA - 2001)
TTITLE1=Original Sin (Live at The Bottom Line-New York-USA - 2001)
TTITLE2=Cloud Cuckoo Land (Live at The Bottom Line-New York-USA - 2001)
TTITLE3=Revel Without a Pause (Live at Teatro Opera-Buenos Aires-Argentina - 20
TTITLE3=02)
TTITLE4=Bajo del Sol (Live at Teatro Opera-Buenos Aires-Argentina - 2002)
TTITLE5=Tramontana (Live at Teatro Opera-Buenos Aires-Argentina - 2002)
TTITLE6=Beelzebub (Live at Teatro Opera-Buenos Aires-Argentina - 2002)
EXTD=
EXTT0=
EXTT1=
EXTT2=
EXTT3=
EXTT4=
EXTT5=
EXTT6=
PLAYORDER=
